<svg width="20" height="26" viewBox="0 0 20 26" fill="none" xmlns="http://www.w3.org/2000/svg">
<path d="M19.0102 9.10289C18.8731 9.21315 16.4517 10.6269 16.4517 13.7706C16.4517 17.4068 19.5328 18.6931 19.625 18.725C19.6108 18.8034 19.1355 20.4867 18.0005 22.2019C16.9885 23.7112 15.9315 25.2181 14.3236 25.2181C12.7157 25.2181 12.3019 24.2503 10.4457 24.2503C8.63682 24.2503 7.99366 25.25 6.52289 25.25C5.05213 25.25 4.0259 23.8534 2.84597 22.1382C1.47925 20.1241 0.375 16.9951 0.375 14.0254C0.375 9.26215 3.36382 6.73595 6.30535 6.73595C7.86834 6.73595 9.17122 7.79936 10.1525 7.79936C11.0865 7.79936 12.5431 6.67224 14.3213 6.67224C14.9952 6.67224 17.4165 6.73595 19.0102 9.10289ZM13.4771 4.65569C14.2125 3.75155 14.7327 2.49702 14.7327 1.2425C14.7327 1.06853 14.7185 0.892115 14.6878 0.75C13.4913 0.796555 12.0678 1.57573 11.2095 2.60729C10.5356 3.40117 9.9066 4.65569 9.9066 5.92737C9.9066 6.11849 9.93734 6.30961 9.95152 6.37086C10.0272 6.38556 10.1501 6.40272 10.2731 6.40272C11.3466 6.40272 12.6968 5.65784 13.4771 4.65569Z" fill="black"/>
</svg>
