<svg width="21" height="20" viewBox="0 0 21 20" fill="none" xmlns="http://www.w3.org/2000/svg">
<path fill-rule="evenodd" clip-rule="evenodd" d="M0.5 9.99976C0.5 15.5226 4.97745 19.9998 10.5 19.9998C16.0225 19.9998 20.5 15.5226 20.5 9.99976C20.5 4.47754 16.0222 -0.000244141 10.5 -0.000244141C4.97779 -0.000244141 0.5 4.47754 0.5 9.99976ZM2 9.99976C2 5.30597 5.80621 1.49976 10.5 1.49976C15.1938 1.49976 19 5.30597 19 9.99976C19 14.6942 15.1941 18.4998 10.5 18.4998C5.80586 18.4998 2 14.6942 2 9.99976ZM8.45572 13.0234C8.23723 13.3166 8.26054 13.7333 8.52623 14.0001C8.81849 14.2937 9.29336 14.2947 9.58689 14.0024L13.0729 10.5314L13.1459 10.4472C13.3649 10.1531 13.3405 9.73499 13.0729 9.46848L9.58689 5.99748L9.50261 5.92505C9.20853 5.70783 8.79192 5.73293 8.52623 5.99977L8.45379 6.08405C8.23657 6.37813 8.26167 6.79474 8.52851 7.06043L11.48 10.001L8.52851 12.9395L8.45572 13.0234Z" fill="white"/>
</svg>
