<svg width="20" height="20" viewBox="0 0 20 20" fill="none" xmlns="http://www.w3.org/2000/svg">
<path fill-rule="evenodd" clip-rule="evenodd" d="M10.0001 1.66748C5.3974 1.66748 1.66675 5.39814 1.66675 10.0008C1.66675 14.6035 5.3974 18.3341 10.0001 18.3341C14.6028 18.3341 18.3334 14.6035 18.3334 10.0008C18.3334 5.39814 14.6028 1.66748 10.0001 1.66748ZM10.0001 2.91748C13.9124 2.91748 17.0834 6.08849 17.0834 10.0008C17.0834 13.9131 13.9124 17.0841 10.0001 17.0841C6.08776 17.0841 2.91675 13.9131 2.91675 10.0008C2.91675 6.08849 6.08776 2.91748 10.0001 2.91748ZM10.337 6.4549C10.2956 6.14984 10.0341 5.91471 9.71769 5.91471C9.37251 5.91471 9.09269 6.19454 9.09269 6.53971V10.5789L9.09966 10.672C9.12727 10.8554 9.23547 11.019 9.39749 11.1156L12.5392 12.9898L12.6149 13.0283C12.8981 13.1491 13.234 13.045 13.3961 12.7732L13.4347 12.6975C13.5554 12.4143 13.4513 12.0784 13.1796 11.9163L10.3424 10.2231L10.3427 6.53971L10.337 6.4549Z" fill="#363636"/>
</svg>
