<svg width="26" height="26" viewBox="0 0 26 26" fill="none" xmlns="http://www.w3.org/2000/svg">
<path d="M25.2506 13.2758C25.2506 12.4693 25.1776 11.7037 25.0525 10.9585H13.2666V15.5625H20.0148C19.7123 17.0733 18.8258 18.3493 17.5116 19.217V22.2795H21.5376C23.8947 20.146 25.2506 17.0018 25.2506 13.2758Z" fill="#4285F4"/>
<path d="M13.2655 25.2502C16.6448 25.2502 19.4713 24.1477 21.5364 22.2796L17.5105 19.2171C16.384 19.9521 14.9551 20.4012 13.2655 20.4012C10.0009 20.4012 7.23695 18.2473 6.2461 15.3379H2.09497V18.4923C4.14967 22.4939 8.37381 25.2502 13.2655 25.2502Z" fill="#34A853"/>
<path d="M6.2466 15.3376C5.98585 14.6026 5.85026 13.8166 5.85026 12.9999C5.85026 12.1832 5.99628 11.3972 6.2466 10.6622V7.50781H2.09547C1.24021 9.16156 0.75 11.0195 0.75 12.9999C0.75 14.9803 1.24021 16.8382 2.09547 18.492L6.2466 15.3376Z" fill="#FBBC05"/>
<path d="M13.2655 5.59896C15.1116 5.59896 16.7595 6.22167 18.0633 7.43646L21.6303 3.94521C19.4713 1.96479 16.6448 0.75 13.2655 0.75C8.37381 0.75 4.14968 3.50625 2.09497 7.50792L6.2461 10.6623C7.23695 7.75292 10.0009 5.59896 13.2655 5.59896Z" fill="#EA4335"/>
</svg>
