<svg width="24" height="24" viewBox="0 0 24 24" fill="none" xmlns="http://www.w3.org/2000/svg">
<path opacity="0.15" d="M1.75 22.75C1.75 22.9489 2.82991 23.1397 4.75216 23.2803C6.6744 23.421 9.28153 23.5 12 23.5C14.7185 23.5 17.3256 23.421 19.2478 23.2803C21.1701 23.1397 22.25 22.9489 22.25 22.75C22.25 22.5511 21.1701 22.3603 19.2478 22.2197C17.3256 22.079 14.7185 22 12 22C9.28153 22 6.6744 22.079 4.75216 22.2197C2.82991 22.3603 1.75 22.5511 1.75 22.75Z" fill="#45413C"/>
<path d="M2 7.5H22V9H2V7.5Z" fill="#8CA4B8"/>
<path d="M21.5 7.5H2.50002C2.36741 7.5 2.24023 7.55268 2.14646 7.64645C2.05269 7.74021 2.00002 7.86739 2.00002 8V8.5C1.99479 8.5415 1.99479 8.5835 2.00002 8.625C2.02836 8.51499 2.09332 8.41791 2.1842 8.34975C2.27508 8.28159 2.38647 8.24641 2.50002 8.25H21.5C21.6136 8.24641 21.7249 8.28159 21.8158 8.34975C21.9067 8.41791 21.9717 8.51499 22 8.625C22.0052 8.5835 22.0052 8.5415 22 8.5V8C22 7.86739 21.9473 7.74021 21.8536 7.64645C21.7598 7.55268 21.6326 7.5 21.5 7.5Z" fill="#ADC4D9"/>
<path d="M2 7.5H22V9H2V7.5Z" stroke="#45413C" stroke-linecap="round" stroke-linejoin="round"/>
<path d="M2.5 9H21.5V21.75C21.5 21.8826 21.4473 22.0098 21.3536 22.1036C21.2598 22.1973 21.1326 22.25 21 22.25H3C2.86739 22.25 2.74021 22.1973 2.64645 22.1036C2.55268 22.0098 2.5 21.8826 2.5 21.75V9Z" fill="white"/>
<path d="M2.5 9H21.5V10.125H2.5V9Z" fill="#E0E0E0"/>
<path d="M2.5 9H21.5V21.75C21.5 21.8826 21.4473 22.0098 21.3536 22.1036C21.2598 22.1973 21.1326 22.25 21 22.25H3C2.86739 22.25 2.74021 22.1973 2.64645 22.1036C2.55268 22.0098 2.5 21.8826 2.5 21.75V9Z" stroke="#45413C" stroke-linecap="round" stroke-linejoin="round"/>
<path d="M6.75 6.25H17.25V22.25H6.75V6.25Z" fill="white"/>
<path d="M6.75 6.25H17.25V7.145H6.75V6.25Z" fill="#E0E0E0"/>
<path d="M6.75 6.25H17.25V22.25H6.75V6.25Z" stroke="#45413C" stroke-linecap="round" stroke-linejoin="round"/>
<path d="M9 16.75H15V22.25H9V16.75Z" stroke="#45413C" stroke-linecap="round" stroke-linejoin="round"/>
<path d="M8.5 15H15.5V16.75H8.5V15Z" fill="#8CA4B8"/>
<path d="M15.0001 15H9.0001C8.86749 15 8.74031 15.0527 8.64654 15.1464C8.55278 15.2402 8.5001 15.3674 8.5001 15.5V16.25C8.49769 16.2699 8.49769 16.2901 8.5001 16.31C8.51596 16.189 8.57557 16.0779 8.66767 15.9978C8.75978 15.9176 8.87802 15.874 9.0001 15.875H15.0001C15.1222 15.874 15.2404 15.9176 15.3325 15.9978C15.4246 16.0779 15.4842 16.189 15.5001 16.31C15.5025 16.2901 15.5025 16.2699 15.5001 16.25V15.5C15.5001 15.3674 15.4474 15.2402 15.3537 15.1464C15.2599 15.0527 15.1327 15 15.0001 15Z" fill="#ADC4D9"/>
<path d="M8.5 15H15.5V16.75H8.5V15Z" stroke="#45413C" stroke-linecap="round" stroke-linejoin="round"/>
<path d="M6.25 4.75H17.75V6.25H6.25V4.75Z" fill="#8CA4B8"/>
<path d="M17.25 4.75H6.75C6.61739 4.75 6.49021 4.80268 6.39645 4.89645C6.30268 4.99021 6.25 5.11739 6.25 5.25V5.75C6.25297 5.79256 6.26137 5.83457 6.275 5.875C6.30231 5.76917 6.36354 5.6752 6.44932 5.60747C6.53511 5.53975 6.64072 5.502 6.75 5.5H17.25C17.3635 5.49641 17.4749 5.53159 17.5658 5.59975C17.6567 5.66791 17.7217 5.76499 17.75 5.875C17.7552 5.8335 17.7552 5.7915 17.75 5.75V5.25C17.75 5.11739 17.6973 4.99021 17.6036 4.89645C17.5098 4.80268 17.3826 4.75 17.25 4.75Z" fill="#ADC4D9"/>
<path d="M6.25 4.75H17.75V6.25H6.25V4.75Z" stroke="#45413C" stroke-linecap="round" stroke-linejoin="round"/>
<path d="M13.75 9.5H13C12.9337 9.5 12.8701 9.47366 12.8232 9.42678C12.7763 9.37989 12.75 9.3163 12.75 9.25V8.5C12.75 8.4337 12.7237 8.37011 12.6768 8.32322C12.6299 8.27634 12.5663 8.25 12.5 8.25H11.5C11.4337 8.25 11.3701 8.27634 11.3232 8.32322C11.2763 8.37011 11.25 8.4337 11.25 8.5V9.25C11.25 9.3163 11.2237 9.37989 11.1768 9.42678C11.1299 9.47366 11.0663 9.5 11 9.5H10.25C10.1837 9.5 10.1201 9.52634 10.0732 9.57322C10.0263 9.62011 10 9.6837 10 9.75V10.75C10 10.8163 10.0263 10.8799 10.0732 10.9268C10.1201 10.9737 10.1837 11 10.25 11H11C11.0663 11 11.1299 11.0263 11.1768 11.0732C11.2237 11.1201 11.25 11.1837 11.25 11.25V12C11.25 12.0663 11.2763 12.1299 11.3232 12.1768C11.3701 12.2237 11.4337 12.25 11.5 12.25H12.5C12.5663 12.25 12.6299 12.2237 12.6768 12.1768C12.7237 12.1299 12.75 12.0663 12.75 12V11.25C12.75 11.1837 12.7763 11.1201 12.8232 11.0732C12.8701 11.0263 12.9337 11 13 11H13.75C13.8163 11 13.8799 10.9737 13.9268 10.9268C13.9737 10.8799 14 10.8163 14 10.75V9.75C14 9.6837 13.9737 9.62011 13.9268 9.57322C13.8799 9.52634 13.8163 9.5 13.75 9.5Z" fill="#9747FF"/>
<path d="M4 10.25H5.25V12.5H4V10.25ZM4 13.75H5.25V16H4V13.75ZM4 17.25H5.25V19.5H4V17.25Z" stroke="#45413C" stroke-linecap="round" stroke-linejoin="round"/>
<path d="M12 16.75V22.25M18.75 10.25H20V12.5H18.75V10.25ZM18.75 13.75H20V16H18.75V13.75ZM18.75 17.25H20V19.5H18.75V17.25Z" stroke="#45413C" stroke-linecap="round" stroke-linejoin="round"/>
</svg>
