<svg width="16" height="16" viewBox="0 0 16 16" fill="none" xmlns="http://www.w3.org/2000/svg">
<path d="M5.91994 3.06661C5.3866 0.759941 1.91327 0.753274 1.37994 3.06661C1.0666 4.41994 1.9266 5.56661 2.67327 6.27994C3.21994 6.79327 4.07994 6.79327 4.6266 6.27994C5.37327 5.56661 6.2266 4.41994 5.91994 3.06661ZM3.67327 4.13327C3.3066 4.13327 3.0066 3.83327 3.0066 3.46661C3.0066 3.09994 3.29994 2.79994 3.6666 2.79994H3.67327C4.0466 2.79994 4.33994 3.09994 4.33994 3.46661C4.33994 3.83327 4.0466 4.13327 3.67327 4.13327Z" fill="#9CA3AF"/>
<path d="M14.6067 11.0666C14.0733 8.75994 10.5867 8.75327 10.0467 11.0666C9.73333 12.4199 10.5933 13.5666 11.3467 14.2799C11.8933 14.7933 12.76 14.7933 13.3067 14.2799C14.06 13.5666 14.92 12.4199 14.6067 11.0666ZM12.3533 12.1333C11.9867 12.1333 11.6867 11.8333 11.6867 11.4666C11.6867 11.0999 11.98 10.7999 12.3467 10.7999H12.3533C12.72 10.7999 13.02 11.0999 13.02 11.4666C13.02 11.8333 12.72 12.1333 12.3533 12.1333Z" fill="#9CA3AF"/>
<path d="M7.99988 13.1667H6.21321C5.43988 13.1667 4.76655 12.7 4.49988 11.98C4.22655 11.26 4.42655 10.4667 5.00655 9.95337L10.3332 5.29337C10.6532 5.01337 10.6599 4.63337 10.5665 4.37337C10.4665 4.11337 10.2132 3.83337 9.78655 3.83337H7.99988C7.72655 3.83337 7.49988 3.60671 7.49988 3.33337C7.49988 3.06004 7.72655 2.83337 7.99988 2.83337H9.78655C10.5599 2.83337 11.2332 3.30004 11.4999 4.02004C11.7732 4.74004 11.5732 5.53337 10.9932 6.04671L5.66655 10.7067C5.34655 10.9867 5.33988 11.3667 5.43321 11.6267C5.53321 11.8867 5.78655 12.1667 6.21321 12.1667H7.99988C8.27321 12.1667 8.49988 12.3934 8.49988 12.6667C8.49988 12.94 8.27321 13.1667 7.99988 13.1667Z" fill="#9CA3AF"/>
</svg>
