<svg width="26" height="16" viewBox="0 0 26 16" fill="none" xmlns="http://www.w3.org/2000/svg">
<path d="M3.3963 10.5118C3.3963 11.4172 3.60163 12.1123 3.87001 12.5329C4.22188 13.0837 4.74671 13.3171 5.28177 13.3171C5.97188 13.3171 6.60321 13.1513 7.81986 11.5227C8.79455 10.2174 9.94304 8.38509 10.7158 7.23641L12.0245 5.29034C12.9335 3.93881 13.9858 2.43637 15.1922 1.41798C16.1771 0.58678 17.2395 0.125 18.3088 0.125C20.1039 0.125 21.8139 1.13185 23.1226 3.0202C24.5548 5.08831 25.25 7.69325 25.25 10.3815C25.25 11.9796 24.9245 13.1538 24.3707 14.0815C23.8357 14.9787 22.7928 15.875 21.0386 15.875V13.3171C22.5407 13.3171 22.9155 11.9812 22.9155 10.4524C22.9155 8.27377 22.3907 5.85602 21.2345 4.12847C20.4141 2.9031 19.3508 2.15436 18.181 2.15436C16.9158 2.15436 15.8976 3.07792 14.7534 4.72466C14.1451 5.59957 13.5206 6.66579 12.8194 7.86889L12.0475 9.19238C10.4968 11.8534 10.1041 12.4595 9.32875 13.4597C7.96981 15.2112 6.8094 15.875 5.28177 15.875C3.46957 15.875 2.32364 15.1155 1.61392 13.971C1.03457 13.0383 0.75 11.8146 0.75 10.4202L3.3963 10.5118Z" fill="#0081FB"/>
<path d="M2.83667 3.20079C4.04991 1.39077 5.80076 0.125 7.80892 0.125C8.97189 0.125 10.1281 0.458143 11.3353 1.41221C12.6559 2.45534 14.0634 4.173 15.8194 7.00387L16.449 8.01979C17.969 10.4705 18.8337 11.7313 19.3398 12.3259C19.9908 13.0895 20.4466 13.3171 21.0387 13.3171C22.5408 13.3171 22.9157 11.9812 22.9157 10.4524L25.2501 10.3815C25.2501 11.9796 24.9247 13.1538 24.3709 14.0815C23.8358 14.9787 22.793 15.875 21.0387 15.875C19.9482 15.875 18.982 15.6458 17.9136 14.6702C17.0923 13.9215 16.1321 12.5914 15.3934 11.3957L13.1961 7.84332C12.0936 6.06052 11.0823 4.73126 10.497 4.1293C9.86734 3.48198 9.05794 2.70025 7.76632 2.70025C6.72092 2.70025 5.83314 3.41024 5.0902 4.49624L2.83667 3.20079Z" fill="url(#paint0_linear_6277_8539)"/>
<path d="M7.76619 2.70025C6.72079 2.70025 5.83301 3.41024 5.09007 4.49624C4.03956 6.03084 3.3963 8.31665 3.3963 10.5118C3.3963 11.4172 3.60163 12.1123 3.87001 12.5329L1.61392 13.971C1.03457 13.0383 0.75 11.8146 0.75 10.4202C0.75 7.88455 1.46909 5.24169 2.83654 3.20079C4.04978 1.39077 5.80063 0.125 7.80879 0.125L7.76619 2.70025Z" fill="url(#paint1_linear_6277_8539)"/>
<defs>
<linearGradient id="paint0_linear_6277_8539" x1="5.94731" y1="9.7729" x2="22.8139" y2="10.653" gradientUnits="userSpaceOnUse">
<stop stop-color="#0064E1"/>
<stop offset="0.4" stop-color="#0064E1"/>
<stop offset="0.83" stop-color="#0073EE"/>
<stop offset="1" stop-color="#0082FB"/>
</linearGradient>
<linearGradient id="paint1_linear_6277_8539" x1="4.58398" y1="11.587" x2="4.58398" y2="5.56741" gradientUnits="userSpaceOnUse">
<stop stop-color="#0082FB"/>
<stop offset="1" stop-color="#0064E0"/>
</linearGradient>
</defs>
</svg>
