<svg width="24" height="24" viewBox="0 0 24 24" fill="none" xmlns="http://www.w3.org/2000/svg">
<path d="M8 2V5" stroke="#200E32" stroke-width="1.5" stroke-miterlimit="10" stroke-linecap="round" stroke-linejoin="round"/>
<path d="M16 2V5" stroke="#200E32" stroke-width="1.5" stroke-miterlimit="10" stroke-linecap="round" stroke-linejoin="round"/>
<path d="M3.5 9.08997H20.5" stroke="#200E32" stroke-width="1.5" stroke-miterlimit="10" stroke-linecap="round" stroke-linejoin="round"/>
<path d="M19.2091 15.7703L15.6691 19.3103C15.5291 19.4503 15.3991 19.7103 15.3691 19.9003L15.1791 21.2503C15.1091 21.7403 15.4491 22.0803 15.9391 22.0103L17.2891 21.8203C17.4791 21.7903 17.7491 21.6603 17.8791 21.5203L21.4191 17.9803C22.0291 17.3703 22.3191 16.6603 21.4191 15.7603C20.5291 14.8703 19.8191 15.1603 19.2091 15.7703Z" stroke="#200E32" stroke-width="1.5" stroke-miterlimit="10" stroke-linecap="round" stroke-linejoin="round"/>
<path d="M18.6992 16.2812C18.9992 17.3613 19.8392 18.2013 20.9192 18.5013" stroke="#200E32" stroke-width="1.5" stroke-miterlimit="10" stroke-linecap="round" stroke-linejoin="round"/>
<path d="M12 22H8C4.5 22 3 20 3 17V8.5C3 5.5 4.5 3.5 8 3.5H16C19.5 3.5 21 5.5 21 8.5V12" stroke="#200E32" stroke-width="1.5" stroke-miterlimit="10" stroke-linecap="round" stroke-linejoin="round"/>
<path d="M11.9945 13.6992H12.0035" stroke="#200E32" stroke-width="2" stroke-linecap="round" stroke-linejoin="round"/>
<path d="M8.29529 13.6992H8.30427" stroke="#200E32" stroke-width="2" stroke-linecap="round" stroke-linejoin="round"/>
<path d="M8.29529 16.6992H8.30427" stroke="#200E32" stroke-width="2" stroke-linecap="round" stroke-linejoin="round"/>
</svg>
