<svg width="18" height="18" viewBox="0 0 18 18" fill="none" xmlns="http://www.w3.org/2000/svg">
<path fill-rule="evenodd" clip-rule="evenodd" d="M8.67637 0.666687C4.25278 0.666687 0.666748 4.17351 0.666748 8.4994C0.666748 12.8253 4.25278 16.3321 8.67637 16.3321C10.5681 16.3321 12.3068 15.6908 13.6772 14.6182L16.2806 17.1575L16.3498 17.2158C16.5915 17.3907 16.9342 17.3708 17.1529 17.1564C17.3935 16.9205 17.393 16.5386 17.1518 16.3033L14.5791 13.7939C15.8874 12.3998 16.686 10.5408 16.686 8.4994C16.686 4.17351 13.1 0.666687 8.67637 0.666687ZM8.67639 1.87274C12.4186 1.87274 15.4523 4.83942 15.4523 8.49901C15.4523 12.1586 12.4186 15.1253 8.67639 15.1253C4.93416 15.1253 1.90047 12.1586 1.90047 8.49901C1.90047 4.83942 4.93416 1.87274 8.67639 1.87274Z" fill="#909090"/>
</svg>
