<svg width="59" height="10" viewBox="0 0 59 10" fill="none" xmlns="http://www.w3.org/2000/svg">
<path d="M5.90815 0.722833L6.79537 2.49727C6.91492 2.74267 7.23583 2.97549 7.5064 3.02583L9.11095 3.2901C10.1366 3.46 10.3757 4.20249 9.6395 4.94498L8.38733 6.19716C8.17968 6.4048 8.06013 6.81381 8.12934 7.10955L8.48801 8.65746C8.77116 9.87817 8.11676 10.3564 7.04077 9.71457L5.5369 8.82106C5.26633 8.65746 4.81329 8.65746 4.54272 8.82106L3.03885 9.71457C1.96286 10.3501 1.30846 9.87817 1.59162 8.65746L1.95028 7.10955C2.00691 6.80751 1.88735 6.39851 1.67971 6.19087L0.427534 4.93869C-0.308668 4.20249 -0.0695593 3.46 0.95609 3.28381L2.56063 3.01953C2.8312 2.97549 3.15211 2.73638 3.27167 2.49098L4.15889 0.716541C4.64339 -0.239893 5.42364 -0.239893 5.90815 0.722833Z" fill="#FEB052"/>
<path d="M17.9753 0.722833L18.8625 2.49727C18.9821 2.74267 19.303 2.97549 19.5735 3.02583L21.1781 3.2901C22.2037 3.46 22.4428 4.20249 21.7066 4.94498L20.4545 6.19716C20.2468 6.4048 20.1273 6.81381 20.1965 7.10955L20.5551 8.65746C20.8383 9.87817 20.1839 10.3564 19.1079 9.71457L17.604 8.82106C17.3335 8.65746 16.8804 8.65746 16.6099 8.82106L15.106 9.71457C14.03 10.3501 13.3756 9.87817 13.6588 8.65746L14.0174 7.10955C14.074 6.80751 13.9545 6.39851 13.7468 6.19087L12.4947 4.93869C11.7585 4.20249 11.9976 3.46 13.0232 3.28381L14.6278 3.01953C14.8983 2.97549 15.2193 2.73638 15.3388 2.49098L16.226 0.716541C16.7105 -0.239893 17.4908 -0.239893 17.9753 0.722833Z" fill="#FEB052"/>
<path d="M30.0422 0.722833L30.9294 2.49727C31.049 2.74267 31.3699 2.97549 31.6404 3.02583L33.245 3.2901C34.2706 3.46 34.5097 4.20249 33.7735 4.94498L32.5214 6.19716C32.3137 6.4048 32.1942 6.81381 32.2634 7.10955L32.622 8.65746C32.9052 9.87817 32.2508 10.3564 31.1748 9.71457L29.6709 8.82106C29.4004 8.65746 28.9473 8.65746 28.6768 8.82106L27.1729 9.71457C26.0969 10.3501 25.4425 9.87817 25.7256 8.65746L26.0843 7.10955C26.1409 6.80751 26.0214 6.39851 25.8137 6.19087L24.5616 4.93869C23.8254 4.20249 24.0645 3.46 25.0901 3.28381L26.6947 3.01953C26.9652 2.97549 27.2861 2.73638 27.4057 2.49098L28.2929 0.716541C28.7774 -0.239893 29.5577 -0.239893 30.0422 0.722833Z" fill="#FEB052"/>
<path d="M42.1093 0.722833L42.9965 2.49727C43.1161 2.74267 43.437 2.97549 43.7076 3.02583L45.3121 3.2901C46.3378 3.46 46.5769 4.20249 45.8407 4.94498L44.5885 6.19716C44.3809 6.4048 44.2613 6.81381 44.3305 7.10955L44.6892 8.65746C44.9723 9.87817 44.3179 10.3564 43.2419 9.71457L41.7381 8.82106C41.4675 8.65746 41.0145 8.65746 40.7439 8.82106L39.24 9.71457C38.164 10.3501 37.5096 9.87817 37.7928 8.65746L38.1515 7.10955C38.2081 6.80751 38.0885 6.39851 37.8809 6.19087L36.6287 4.93869C35.8925 4.20249 36.1316 3.46 37.1573 3.28381L38.7618 3.01953C39.0324 2.97549 39.3533 2.73638 39.4728 2.49098L40.3601 0.716541C40.8446 -0.239893 41.6248 -0.239893 42.1093 0.722833Z" fill="#FEB052"/>
<path d="M54.1762 0.722833L55.0634 2.49727C55.183 2.74267 55.5039 2.97549 55.7745 3.02583L57.379 3.2901C58.4047 3.46 58.6438 4.20249 57.9076 4.94498L56.6554 6.19716C56.4477 6.4048 56.3282 6.81381 56.3974 7.10955L56.7561 8.65746C57.0392 9.87817 56.3848 10.3564 55.3088 9.71457L53.805 8.82106C53.5344 8.65746 53.0814 8.65746 52.8108 8.82106L51.3069 9.71457C50.2309 10.3501 49.5765 9.87817 49.8597 8.65746L50.2183 7.10955C50.275 6.80751 50.1554 6.39851 49.9478 6.19087L48.6956 4.93869C47.9594 4.20249 48.1985 3.46 49.2242 3.28381L50.8287 3.01953C51.0993 2.97549 51.4202 2.73638 51.5397 2.49098L52.427 0.716541C52.9115 -0.239893 53.6917 -0.239893 54.1762 0.722833Z" fill="#FEB052"/>
</svg>
